<?xml version="1.0" encoding="UTF-8"?>
<svg version="1.1" xmlns="http://www.w3.org/2000/svg" width="224" height="224">
<path d="M0 0 C8.17204774 6.00885864 14.16276026 13.18880128 16.1875 23.3125 C16.1875 26.2825 16.1875 29.2525 16.1875 32.3125 C7.6075 32.3125 -0.9725 32.3125 -9.8125 32.3125 C-10.8025 29.0125 -11.7925 25.7125 -12.8125 22.3125 C-15.78722512 18.55495248 -18.29356562 16.75578587 -22.8125 15.3125 C-26.42007307 14.95906839 -26.42007307 14.95906839 -30.25 15 C-31.52746094 14.98324219 -32.80492187 14.96648437 -34.12109375 14.94921875 C-39.17118161 15.44621152 -42.43157061 17.0769316 -46.1875 20.4375 C-48.46162767 24.46095664 -48.71253364 27.79581741 -47.8125 32.3125 C-42.37264194 40.66656773 -29.77257022 43.76007153 -20.75 46.8125 C-6.34108343 51.71902475 7.08563515 58.08145443 14.34765625 72.26953125 C17.70379967 80.43354525 17.60030163 91.77671576 14.4375 100 C9.63728146 109.9492419 1.59848495 114.65824602 -8.453125 118.55078125 C-14.88304501 120.62666602 -21.17951748 120.53101037 -27.875 120.5625 C-29.47891602 120.5934375 -29.47891602 120.5934375 -31.11523438 120.625 C-45.96324493 120.69677286 -59.07402427 116.42249499 -70.09375 106.23828125 C-77.09631869 98.39222133 -78.8714943 89.66356273 -79.8125 79.3125 C-70.9025 79.3125 -61.9925 79.3125 -52.8125 79.3125 C-52.1525 82.2825 -51.4925 85.2525 -50.8125 88.3125 C-48.4929101 93.23003059 -45.73528027 95.64773836 -40.78125 97.62109375 C-36.87279579 98.53135216 -33.12848176 98.70963453 -29.125 98.75 C-28.03795776 98.76522705 -28.03795776 98.76522705 -26.92895508 98.78076172 C-21.41112321 98.69087619 -17.09654037 97.51778036 -13 93.5625 C-10.64705304 89.1042847 -10.49796751 85.5286923 -11.75 80.6875 C-16.68792726 72.60725539 -26.61521405 70.33960898 -35.125 67.375 C-49.64580353 62.3141085 -65.42099609 56.50220246 -72.875 42 C-76.79795786 33.33040273 -76.88672615 24.71357575 -73.84765625 15.6953125 C-69.13696158 4.85182665 -60.20004359 -0.43225626 -49.64453125 -4.70703125 C-34.28777579 -10.0236459 -13.86325273 -8.37863254 0 0 Z " fill="#FFFFFF" transform="translate(87.8125,53.6875)"/>
<path d="M0 0 C2.31 0 4.62 0 7 0 C7.33 4.95 7.66 9.9 8 15 C9.32 13.35 10.64 11.7 12 10 C14.359375 9.51171875 14.359375 9.51171875 16.75 9.6875 C17.94882813 9.75517578 17.94882813 9.75517578 19.171875 9.82421875 C19.77515625 9.88222656 20.3784375 9.94023437 21 10 C20.57847656 10.55429688 20.15695313 11.10859375 19.72265625 11.6796875 C19.17480469 12.40414062 18.62695312 13.12859375 18.0625 13.875 C17.51722656 14.59429687 16.97195312 15.31359375 16.41015625 16.0546875 C14.96035376 17.94357079 14.96035376 17.94357079 14 20 C14.5775 20.85464844 15.155 21.70929688 15.75 22.58984375 C16.50012058 23.70564811 17.25011404 24.82153795 18 25.9375 C18.3815625 26.50146484 18.763125 27.06542969 19.15625 27.64648438 C22 31.88671875 22 31.88671875 22 33 C16.79974076 33.61697991 16.79974076 33.61697991 14 33 C12.25364725 31.30875061 11.13559823 29.62488646 9.91015625 27.53125 C9.60980469 27.0259375 9.30945313 26.520625 9 26 C8.67 26 8.34 26 8 26 C7.67 28.31 7.34 30.62 7 33 C4.69 33 2.38 33 0 33 C0 22.11 0 11.22 0 0 Z " fill="#FFFFFF" transform="translate(200,121)"/>
<path d="M0 0 C0.74121094 -0.02835938 1.48242188 -0.05671875 2.24609375 -0.0859375 C5.75792726 0.61287591 7.19213797 1.66951782 9.5625 4.375 C10.31396444 7.62045512 10.35292267 10.80358812 10.375 14.125 C10.40013672 15.01316406 10.42527344 15.90132812 10.45117188 16.81640625 C10.5099526 19.00304918 10.54629539 21.18769532 10.5625 23.375 C7.81144578 23.48312003 5.06464913 23.56234945 2.3125 23.625 C1.14654297 23.67527344 1.14654297 23.67527344 -0.04296875 23.7265625 C-5.81882533 23.82529509 -5.81882533 23.82529509 -8.94921875 21.546875 C-10.4375 19.375 -10.4375 19.375 -11 16.375 C-10.4375 13.375 -10.4375 13.375 -8.4375 11 C-4.43973382 8.83454332 -1.93687346 9.06995773 2.5625 9.375 C2.2325 8.385 1.9025 7.395 1.5625 6.375 C1.046875 6.54 0.53125 6.705 0 6.875 C-3.17113876 7.52549 -6.20968334 7.4370734 -9.4375 7.375 C-9.1875 5 -9.1875 5 -8.4375 2.375 C-5.63776082 0.57031161 -3.3036008 0.05725478 0 0 Z M-1.4375 13.375 C-2.0975 14.695 -2.7575 16.015 -3.4375 17.375 C-0.38836772 18.38611093 -0.38836772 18.38611093 2.5625 17.375 C2.5625 16.055 2.5625 14.735 2.5625 13.375 C1.2425 13.375 -0.0775 13.375 -1.4375 13.375 Z " fill="#FFFFFF" transform="translate(164.4375,130.625)"/>
<path d="M0 0 C0.74121094 -0.02835937 1.48242188 -0.05671875 2.24609375 -0.0859375 C5.75792726 0.61287591 7.19213797 1.66951782 9.5625 4.375 C10.31396444 7.62045512 10.35292267 10.80358812 10.375 14.125 C10.40013672 15.01316406 10.42527344 15.90132812 10.45117188 16.81640625 C10.5099526 19.00304918 10.54629539 21.18769532 10.5625 23.375 C7.81144578 23.48312003 5.06464913 23.56234945 2.3125 23.625 C1.14654297 23.67527344 1.14654297 23.67527344 -0.04296875 23.7265625 C-5.81882533 23.82529509 -5.81882533 23.82529509 -8.94921875 21.546875 C-10.4375 19.375 -10.4375 19.375 -11 16.375 C-10.4375 13.375 -10.4375 13.375 -8.4375 11 C-4.43973382 8.83454332 -1.93687346 9.06995773 2.5625 9.375 C2.2325 8.385 1.9025 7.395 1.5625 6.375 C1.046875 6.54 0.53125 6.705 0 6.875 C-3.17113876 7.52549 -6.20968334 7.4370734 -9.4375 7.375 C-9.1875 5 -9.1875 5 -8.4375 2.375 C-5.63776082 0.57031161 -3.3036008 0.05725478 0 0 Z M-1.4375 13.375 C-2.0975 14.695 -2.7575 16.015 -3.4375 17.375 C-0.38836772 18.38611093 -0.38836772 18.38611093 2.5625 17.375 C2.5625 16.055 2.5625 14.735 2.5625 13.375 C1.2425 13.375 -0.0775 13.375 -1.4375 13.375 Z " fill="#FFFFFF" transform="translate(152.4375,74.625)"/>
<path d="M0 0 C6.93 0 13.86 0 21 0 C21 1.65 21 3.3 21 5 C16.38 5 11.76 5 7 5 C7 7.64 7 10.28 7 13 C11.29 13 15.58 13 20 13 C20 14.65 20 16.3 20 18 C15.71 18 11.42 18 7 18 C7 22.29 7 26.58 7 31 C4.69 31 2.38 31 0 31 C0 20.77 0 10.54 0 0 Z " fill="#FFFFFF" transform="translate(120,67)"/>
<path d="M0 0 C3.07227784 2.04818523 4.62520024 3.47543858 5.51953125 7.11328125 C5.77950346 9.06480595 5.90002248 11.03377552 6 13 C1.38 13.33 -3.24 13.66 -8 14 C-7.01 14.99 -6.02 15.98 -5 17 C-2.47608101 16.74524194 -2.47608101 16.74524194 0 16 C0.99 16 1.98 16 3 16 C3.66 17.32 4.32 18.64 5 20 C1.12095037 23.3863297 -1.59812547 23.45079711 -6.58984375 23.2890625 C-9.73634209 22.91168669 -11.61450513 22.08730801 -14 20 C-16.71831481 16.50502382 -16.52955658 12.23645263 -16 8 C-14.00984313 2.62657644 -14.00984313 2.62657644 -11.16796875 0.86328125 C-7.45011524 -0.61716132 -3.92484925 -0.66463579 0 0 Z M-7.75 6.375 C-9.10161846 7.79041193 -9.10161846 7.79041193 -9 9 C-6.36 9 -3.72 9 -1 9 C-1.33 8.01 -1.66 7.02 -2 6 C-4.60361233 4.78498091 -5.44342112 4.56268802 -7.75 6.375 Z " fill="#FFFFFF" transform="translate(204,75)"/>
<path d="M0 0 C8.58 0 17.16 0 26 0 C26 1.65 26 3.3 26 5 C23.03 5 20.06 5 17 5 C17 13.58 17 22.16 17 31 C14.69 31 12.38 31 10 31 C10 22.42 10 13.84 10 5 C6.7 5 3.4 5 0 5 C0 3.35 0 1.7 0 0 Z " fill="#FFFFFF" transform="translate(112,123)"/>
<path d="M0 0 C3.08528918 2.0317758 3.78512059 3.21210883 4.75 6.75 C4.87375 7.86375 4.87375 7.86375 5 9 C1.625 9.1875 1.625 9.1875 -2 9 C-2.66 8.01 -3.32 7.02 -4 6 C-5.32 6 -6.64 6 -8 6 C-8 9.63 -8 13.26 -8 17 C-3.36980013 16.5547002 -3.36980013 16.5547002 -2 15 C0.33297433 14.95907063 2.66705225 14.95758277 5 15 C4.1342843 17.66929007 3.27808762 19.67741836 1.4375 21.8125 C-2.33108188 23.64847579 -5.89183565 23.67370966 -10 23 C-13.49890004 20.88608123 -14.70578686 19.88263941 -16 16 C-16.52442906 10.61451697 -16.56606775 6.35852726 -13 2 C-8.7655634 -0.82295774 -4.97237212 -0.66026581 0 0 Z " fill="#FFFFFF" transform="translate(193,131)"/>
<path d="M0 0 C3.08528918 2.0317758 3.78512059 3.21210883 4.75 6.75 C4.87375 7.86375 4.87375 7.86375 5 9 C1.625 9.1875 1.625 9.1875 -2 9 C-2.66 8.01 -3.32 7.02 -4 6 C-5.32 6 -6.64 6 -8 6 C-8 9.63 -8 13.26 -8 17 C-3.36980013 16.5547002 -3.36980013 16.5547002 -2 15 C0.33297433 14.95907063 2.66705225 14.95758277 5 15 C4.1342843 17.66929007 3.27808762 19.67741836 1.4375 21.8125 C-2.33108188 23.64847579 -5.89183565 23.67370966 -10 23 C-13.49890004 20.88608123 -14.70578686 19.88263941 -16 16 C-16.52442906 10.61451697 -16.56606775 6.35852726 -13 2 C-8.7655634 -0.82295774 -4.97237212 -0.66026581 0 0 Z " fill="#FFFFFF" transform="translate(181,75)"/>
<path d="M0 0 C4.62 0 9.24 0 14 0 C14 1.65 14 3.3 14 5 C12.02 5.66 10.04 6.32 8 7 C7.67 12.28 7.34 17.56 7 23 C4.69 23 2.38 23 0 23 C0 15.41 0 7.82 0 0 Z " fill="#FFFFFF" transform="translate(140,131)"/>
<path d="" fill="#FFFFFF" transform="translate(0,0)"/>
<path d="" fill="#FFFFFF" transform="translate(0,0)"/>
</svg>
