<svg width="300" height="300" viewBox="0 0 300 300" fill="none" xmlns="http://www.w3.org/2000/svg">
<path d="M66.7401 146.38C66.7401 134.71 66.8301 123.03 67.0801 111.37C67.6401 85.7996 79.1301 66.1096 100 51.8896C111.68 43.9296 124.79 40.0196 138.95 39.9496C147.09 39.9096 155.23 39.8396 163.37 40.0296C195.81 40.7896 225.11 63.6196 232.8 98.2896C233.41 101.04 233.9 103.89 233.91 106.69C234.04 131.85 234.8 157.04 233.91 182.18C232.83 212.79 218.27 236.32 191.89 251.53C146.98 277.43 90.5801 256.79 72.0001 208.21C68.1501 198.14 66.5801 187.67 66.7101 176.88C66.8401 166.72 66.7401 156.55 66.7401 146.38ZM227.43 146.17C227.43 136.17 227.3 126.17 227.28 116.18C227.28 112.68 227.5 109.14 227.06 105.69C222.6 70.6396 193.69 46.9396 161.63 46.7596C154.49 46.7196 147.35 46.7596 140.21 46.7396C124.32 46.6996 110.12 51.7296 97.9601 61.8796C82.6101 74.6996 74.1501 91.1796 73.8801 111.4C73.5901 132.89 73.6401 154.39 73.5401 175.88C73.5101 182.56 74.0001 189.15 75.4801 195.71C86.3901 244.21 140.16 270.64 185.29 247.3C212.15 233.41 226.07 210.47 227.35 180.16C227.83 168.85 227.43 157.5 227.43 146.17Z" fill="white"/>
<path d="M151.63 178.17C150.58 173.81 150.36 110.69 151.31 104.26H157.49C158.37 107.6 158.9 171.45 158.03 177.88C155.93 177.97 153.73 178.07 151.63 178.16V178.17Z" fill="white"/>
<path d="M118.4 206.48C119.04 204.12 119.55 202.25 120.15 200.08C130.67 203.12 141 205.9 151.62 205.87C162.16 205.84 172.69 204.59 183.85 203.83C184 205.58 184.17 207.61 184.36 209.83C162.01 214.38 140.36 214.17 118.4 206.48Z" fill="white"/>
<path d="M115.78 110.03C119.87 109.96 123.17 113.07 123.25 117.09C123.33 121.01 120 124.53 116.11 124.63C112.19 124.73 108.77 121.41 108.7 117.42C108.62 113.29 111.67 110.1 115.78 110.02V110.03Z" fill="white"/>
<path d="M196.33 108.24C200.37 108.32 203.4 111.56 203.34 115.71C203.27 119.86 200.11 122.95 196.04 122.85C192.07 122.75 188.73 119.31 188.81 115.41C188.89 111.56 192.46 108.16 196.33 108.24Z" fill="white"/>
</svg>
