<svg width="164" height="1312" viewBox="0 0 300 2400" fill="none" xmlns="http://www.w3.org/2000/svg">
<path d="M66.7401 146.38C66.7401 134.71 66.8301 123.03 67.0801 111.37C67.6401 85.7996 79.1301 66.1096 100 51.8896C111.68 43.9296 124.79 40.0196 138.95 39.9496C147.09 39.9096 155.23 39.8396 163.37 40.0296C195.81 40.7896 225.11 63.6196 232.8 98.2896C233.41 101.04 233.9 103.89 233.91 106.69C234.04 131.85 234.8 157.04 233.91 182.18C232.83 212.79 218.27 236.32 191.89 251.53C146.98 277.43 90.5801 256.79 72.0001 208.21C68.1501 198.14 66.5801 187.67 66.7101 176.88C66.8401 166.72 66.7401 156.55 66.7401 146.38ZM227.43 146.17C227.43 136.17 227.3 126.17 227.28 116.18C227.28 112.68 227.5 109.14 227.06 105.69C222.6 70.6396 193.69 46.9396 161.63 46.7596C154.49 46.7196 147.35 46.7596 140.21 46.7396C124.32 46.6996 110.12 51.7296 97.9601 61.8796C82.6101 74.6996 74.1501 91.1796 73.8801 111.4C73.5901 132.89 73.6401 154.39 73.5401 175.88C73.5101 182.56 74.0001 189.15 75.4801 195.71C86.3901 244.21 140.16 270.64 185.29 247.3C212.15 233.41 226.07 210.47 227.35 180.16C227.83 168.85 227.43 157.5 227.43 146.17Z" fill="white"/>
<path d="M233.25 446.3C233.25 458.46 233.79 470.65 233.14 482.77C231.53 513.01 217.31 536.13 191.41 551.27C154.78 572.68 109.8 563.62 83.64 530.23C72.3 515.76 66.45 499.11 66.13 480.75C65.85 464.43 66.21 448.1 66.33 431.77C66.38 424.61 66.58 417.45 66.62 410.28C66.75 390.72 74.41 374.32 88.04 360.78C101.57 347.34 118.07 340.2 137.21 339.89C147 339.73 156.87 339.37 166.58 340.36C193.54 343.1 213.42 356.87 225.89 381.03C231.07 391.07 233.57 401.84 233.24 413.29C232.93 424.28 233.17 435.28 233.17 446.27C233.19 446.27 233.22 446.27 233.24 446.27L233.25 446.3ZM226.54 446.54C226.54 446.54 226.49 446.54 226.47 446.54C226.47 433.72 226.48 420.89 226.45 408.07C226.45 406.41 226.36 404.73 226.09 403.09C220.88 371.24 193.9 347.62 161.75 346.83C154.28 346.65 146.81 346.64 139.34 346.68C118.46 346.78 101.35 355.11 88.05 371.09C79.43 381.45 74.02 393.5 73.65 407.06C73.01 430.53 72.99 454.03 72.93 477.51C72.9 487.91 74.68 498.05 78.63 507.74C94.07 545.63 136.08 565.03 175.21 551.44C203.91 541.48 225.23 513.82 226.46 483.49C226.96 471.19 226.54 458.85 226.54 446.53V446.54Z" fill="white"/>
<path d="M232.23 746.33C232.23 758.49 232.58 770.67 232.16 782.82C231.02 815.89 208.38 846.67 177.24 857.56C150.18 867.02 124.48 863.88 100.89 847.49C82.29 834.56 71.07 816.48 67.05 794.14C66 788.28 65.75 782.22 65.74 776.25C65.69 754.42 65.92 732.59 65.98 710.76C66.03 693.91 71.64 679.02 82.28 666.21C98.13 647.12 118.8 638.65 143.42 639.63C151.88 639.97 160.45 639.69 168.76 640.98C200.26 645.88 220.37 664.3 229.88 694.59C231.58 700 232.26 705.61 232.2 711.35C232.07 723.01 232.16 734.68 232.16 746.35C232.19 746.35 232.21 746.35 232.24 746.35L232.23 746.33ZM72.62 745.88C72.62 756.38 72.7 766.88 72.59 777.37C72.52 784.25 73.22 791.04 74.91 797.66C87.38 846.59 141.04 870.46 184.91 846.63C212.44 831.67 225.58 807.39 226.08 776.21C226.33 760.72 226.08 745.22 225.93 729.72C225.85 721.23 226.34 712.62 225.16 704.26C220.93 674.15 197.48 651.7 169.71 647.95C159.24 646.53 148.51 646.94 137.9 646.58C130.67 646.34 123.72 647.82 116.89 650.09C91.73 658.44 73.21 683.78 72.99 710.38C72.89 722.21 72.62 734.05 72.62 745.88Z" fill="white"/>
<path d="M65.6602 1046.3C65.6602 1034.13 65.9402 1021.98 65.8102 1009.81C65.5002 980.95 86.1003 951.82 115.69 942.79C123.55 940.39 131.52 939 139.71 939.33C148.83 939.7 158.02 939.76 167.03 941.02C196.75 945.18 216.45 962.14 227.04 990.01C229.96 997.69 231.09 1005.73 231.06 1014.01C230.97 1035.34 231.27 1056.67 231.12 1078C230.96 1101.61 222.52 1121.92 205.79 1138.54C192.12 1152.12 175.67 1160.2 156.43 1162.1C126.69 1165.04 102.29 1154.61 83.4502 1131.59C72.4102 1118.1 66.2802 1102.33 65.7402 1084.78C65.3402 1071.97 65.6602 1059.13 65.6602 1046.3C65.6002 1046.3 65.7202 1046.3 65.6602 1046.3ZM224.53 1046.49C224.53 1046.49 224.48 1046.49 224.46 1046.49C224.46 1034.16 224.53 1021.82 224.41 1009.49C224.38 1006.35 223.99 1003.16 223.32 1000.1C216.86 970.35 192.06 949.88 165.75 947.63C158.15 946.98 150.5 946.85 142.88 946.39C125.92 945.38 110.61 949.88 97.3502 960.54C82.6002 972.4 73.7602 987.99 73.0502 1006.87C72.1102 1032 72.5602 1057.19 72.6602 1082.36C72.7102 1094.05 75.9402 1105.05 81.3602 1115.37C100.44 1151.69 144.42 1166.61 181.31 1147.94C207.83 1134.52 222.54 1112.4 224.4 1082.47C225.14 1070.52 224.52 1058.49 224.52 1046.49H224.53Z" fill="white"/>
<path d="M65.8 1645.85C65.8 1633.69 66.08 1621.53 66.03 1609.37C65.87 1577.46 89.09 1544.79 127.01 1539.45C130.93 1538.9 134.98 1538.96 138.94 1539.14C150.37 1539.68 161.88 1539.77 173.04 1542.62C192.73 1547.65 207.44 1559.47 217.64 1576.89C224.13 1587.98 227.65 1599.99 227.63 1613.02C227.61 1634.51 228.17 1656 227.87 1677.49C227.48 1705.65 216.39 1728.96 194.04 1746.18C155.48 1775.87 100.98 1765 76.74 1722.33C69.88 1710.24 66.03 1697.26 65.84 1683.33C65.67 1670.84 65.8 1658.34 65.8 1645.85ZM72.84 1643.35C73.05 1643.35 72.62 1643.35 72.84 1643.35C72.84 1655.34 72.7 1667.33 72.88 1679.32C73.08 1693.54 76.28 1707.01 83.53 1719.38C99.13 1746.01 128.62 1760.78 159.75 1754.66C185.84 1749.53 204.07 1733.8 215.19 1709.73C220.3 1698.67 222.21 1686.86 222.17 1674.75C222.1 1654.6 221.69 1634.45 221.78 1614.3C221.83 1602.3 218.97 1591.18 213.01 1580.93C201.86 1561.77 185.5 1550.17 163.24 1547.72C155.99 1546.92 148.69 1546.49 141.41 1546C131.14 1545.31 121.11 1546.65 111.79 1551.11C87.6 1562.67 74.54 1581.89 73.58 1608.88C73.17 1620.36 72.84 1631.86 72.84 1643.35Z" fill="white"/>
<path d="M65.3501 1345.98C65.3501 1333.82 65.9501 1321.65 65.8201 1309.49C65.4701 1278.46 88.7101 1246.31 124.67 1240.21C128.9 1239.49 133.26 1239.13 137.54 1239.26C149.8 1239.64 162.19 1239.38 174.15 1242.51C199.09 1249.06 215.8 1265.03 225.07 1288.94C228.03 1296.58 229.4 1304.57 229.36 1312.88C229.27 1333.7 229.42 1354.52 229.61 1375.35C229.8 1396.45 223.79 1415.45 210.41 1431.81C196.34 1449.01 178.33 1459.23 156.15 1462.12C114.21 1467.58 75.0301 1438.63 67.0801 1396.31C65.8301 1389.65 65.6101 1382.76 65.4201 1375.96C65.1501 1365.97 65.3501 1355.97 65.3501 1345.98C65.2001 1345.98 65.5101 1345.98 65.3501 1345.98ZM72.6001 1345.76C72.6001 1355.59 72.5001 1365.42 72.6401 1375.25C72.7201 1380.57 72.8301 1385.93 73.5701 1391.18C79.2701 1431.71 116.1 1460.21 155.34 1455.36C173.22 1453.15 188.4 1445.79 200.9 1433C216.02 1417.53 223.46 1398.74 223.5 1377.08C223.54 1355.75 223.41 1334.42 223.33 1313.09C223.27 1297.3 217.91 1283.37 207.97 1271.31C196.58 1257.48 181.99 1249.19 164.01 1247.63C152.12 1246.59 140.19 1245.09 128.25 1246.75C96.5401 1251.15 73.7201 1278.43 72.9901 1308.77C72.6901 1321.09 72.6001 1333.43 72.6001 1345.76Z" fill="white"/>
<path d="M66.1099 1942.84C66.1099 1931.02 66.8599 1919.18 66.7799 1907.36C66.5699 1878.93 87.4899 1845.36 125.06 1839.55C132.03 1838.47 139.33 1838.88 146.41 1839.42C154.98 1840.08 163.64 1840.96 172 1842.89C188.71 1846.76 201.68 1856.61 211.57 1870.48C221.11 1883.85 225.93 1898.81 225.89 1915.35C225.83 1935.84 226.09 1956.32 225.99 1976.81C225.88 1999.54 218.46 2019.65 203.08 2036.41C185.5 2055.58 163.54 2064.83 137.57 2062.6C114.67 2060.64 96.3799 2049.62 82.6499 2031.19C71.1099 2015.7 66.2199 1997.98 66.1199 1978.81C66.0599 1966.82 66.1099 1954.83 66.1099 1942.84ZM73.6499 1945.24C73.6499 1957.57 73.5099 1969.89 73.6899 1982.22C73.8799 1995.27 77.1699 2007.54 83.5799 2018.94C106.86 2060.31 159.61 2068.47 194.28 2036.67C211.48 2020.89 219.96 2000.91 220.29 1977.65C220.58 1957 220.18 1936.34 220.25 1915.69C220.28 1907.77 219.19 1900.06 216.49 1892.66C207.93 1869.23 192.06 1853.59 167.34 1848.55C155.66 1846.17 143.64 1845.51 131.65 1845.88C130.49 1845.92 129.32 1845.98 128.18 1846.15C97.4499 1850.58 74.2999 1877.08 73.9999 1908.28C73.8799 1920.6 73.6499 1932.91 73.6499 1945.24Z" fill="white"/>
<path d="M67.0298 2243.49C67.0298 2231.16 67.4898 2218.83 67.6898 2206.51C67.9998 2186.67 75.7498 2169.98 89.9098 2156.36C101.78 2144.95 116.23 2138.83 132.57 2138.55C141.97 2138.39 151.39 2140.11 160.81 2140.97C169.88 2141.79 178.33 2144.56 186.2 2149.11C203.1 2158.88 214.07 2173.39 220.13 2191.83C222.54 2199.17 223.7 2206.71 223.73 2214.42C223.82 2235.74 224.38 2257.08 223.82 2278.39C223.1 2305.79 212.48 2328.88 190.91 2346.16C154.77 2375.13 102.84 2366.31 78.5698 2324.39C70.7198 2310.83 67.1098 2296.1 67.0398 2280.48C66.9798 2268.15 67.0298 2255.82 67.0298 2243.49ZM218.41 2246.44C218.41 2236.28 218.22 2226.12 218.35 2215.96C218.51 2203.51 215.54 2191.88 209.5 2181.06C200.3 2164.56 186.87 2153.07 168.31 2149.05C158.32 2146.89 147.92 2146.33 137.67 2145.74C105.2 2143.87 76.4698 2170.67 74.9998 2205.54C73.9398 2230.82 74.5398 2256.17 74.5698 2281.49C74.5898 2298.3 79.4298 2313.67 89.3898 2327.24C101.98 2344.4 118.84 2354.45 140.13 2355.95C160.4 2357.38 178.04 2350.52 192.8 2336.66C209.38 2321.1 217.66 2301.6 218.35 2278.93C218.68 2268.11 218.41 2257.27 218.41 2246.44Z" fill="white"/>
<path d="M151.63 178.17C150.58 173.81 150.36 110.69 151.31 104.26H157.49C158.37 107.6 158.9 171.45 158.03 177.88C155.93 177.97 153.73 178.07 151.63 178.16V178.17Z" fill="white"/>
<path d="M118.4 206.48C119.04 204.12 119.55 202.25 120.15 200.08C130.67 203.12 141 205.9 151.62 205.87C162.16 205.84 172.69 204.59 183.85 203.83C184 205.58 184.17 207.61 184.36 209.83C162.01 214.38 140.36 214.17 118.4 206.48Z" fill="white"/>
<path d="M115.78 110.03C119.87 109.96 123.17 113.07 123.25 117.09C123.33 121.01 120 124.53 116.11 124.63C112.19 124.73 108.77 121.41 108.7 117.42C108.62 113.29 111.67 110.1 115.78 110.02V110.03Z" fill="white"/>
<path d="M196.33 108.24C200.37 108.32 203.4 111.56 203.34 115.71C203.27 119.86 200.11 122.95 196.04 122.85C192.07 122.75 188.73 119.31 188.81 115.41C188.89 111.56 192.46 108.16 196.33 108.24Z" fill="white"/>
<path d="M161.07 477.96H152.69C152.69 465.62 152.69 453.44 152.69 441.25C152.69 429.06 152.69 417.02 152.69 404.65C154.44 403.4 156.53 403.94 159.25 404.35C159.85 428.68 160.45 453 161.06 477.95L161.07 477.96Z" fill="white"/>
<path d="M183.98 502.74C184.2 505.6 184.34 507.38 184.48 509.07C171.08 514.96 137.63 513.75 118.74 506.64C119.19 504.71 119.66 502.71 120.29 500.03C141.28 507.09 162.28 507.51 183.98 502.74Z" fill="white"/>
<path d="M123.81 417.34C123.71 421.35 120.39 424.6 116.49 424.53C112.46 424.45 108.94 420.67 109.19 416.68C109.44 412.7 112.8 409.73 116.86 409.89C120.97 410.06 123.9 413.2 123.8 417.34H123.81Z" fill="white"/>
<path d="M203.89 415.9C203.78 419.9 200.5 423.01 196.48 422.94C192.5 422.86 189.4 419.59 189.46 415.54C189.52 411.58 192.91 408.29 196.8 408.41C200.67 408.54 203.99 412.05 203.89 415.9Z" fill="white"/>
<path d="M162.97 777.87C159.83 777.76 156.64 779.64 153.82 776.01C156.61 774.45 156.05 771.94 155.96 769.51C155.21 750.2 154.46 730.89 153.74 711.58C153.65 709.28 153.73 706.98 153.73 704.33H159.72C161.41 709 164.29 771.3 162.97 777.86V777.87Z" fill="white"/>
<path d="M119.12 806.99C119.61 804.86 120.05 802.97 120.45 801.25C131.18 802.87 141.56 805.38 152.01 805.74C162.5 806.11 173.06 804.33 184.08 803.46C184.25 805.27 184.44 807.18 184.64 809.28C162.61 814.44 141.09 814.19 119.13 806.99H119.12Z" fill="white"/>
<path d="M110.04 716.55C110.23 712.63 113.75 709.39 117.67 709.54C121.85 709.7 124.95 713.25 124.68 717.58C124.42 721.71 121.15 724.52 116.96 724.22C112.94 723.93 109.86 720.52 110.04 716.56V716.55Z" fill="white"/>
<path d="M196.97 708.85C201.08 708.87 204.2 712.08 204.11 716.16C204.02 720.07 201 723.04 197.09 723.05C193.01 723.05 189.88 719.84 189.96 715.72C190.03 711.8 193.06 708.83 196.97 708.85Z" fill="white"/>
<path d="M166.6 1077.79C162.35 1077.68 158.84 1079.71 155.65 1075.98C156.72 1075.3 157.57 1074.76 158.89 1073.92C158.59 1050.94 155.93 1027.8 155.24 1004.3H162.08C163.56 1028.76 166.11 1052.87 166.61 1077.78L166.6 1077.79Z" fill="white"/>
<path d="M183.99 1102.88C184.27 1104.77 184.48 1105.9 184.61 1107.04C184.68 1107.68 184.62 1108.34 184.62 1109.13C162.85 1114.23 141.34 1114.41 119.57 1107.12C120.07 1105.17 120.55 1103.32 121.16 1100.99C122.78 1101.24 124.23 1101.3 125.58 1101.69C142.81 1106.6 160.19 1107.13 177.73 1103.57C179.64 1103.18 181.61 1103.13 184 1102.88H183.99Z" fill="white"/>
<path d="M125.72 1016.79C125.77 1021.02 122.79 1024.08 118.59 1024.11C114.53 1024.13 111.18 1021.03 110.98 1017.04C110.78 1013.02 114.45 1009.26 118.5 1009.34C122.44 1009.41 125.66 1012.74 125.71 1016.79H125.72Z" fill="white"/>
<path d="M204.18 1016.06C204.27 1020.11 201.47 1023.11 197.53 1023.19C193.58 1023.27 190.6 1020.44 190.44 1016.46C190.27 1012.39 192.96 1009.25 196.79 1009.06C200.84 1008.85 204.09 1011.94 204.18 1016.07V1016.06Z" fill="white"/>
<path d="M164.47 1674.27C164.47 1670.67 164.77 1667.19 164.42 1663.77C162.69 1647.22 160.77 1630.68 158.96 1614.14C158.62 1611.01 158.46 1607.86 158.19 1604.4H164.76C165.2 1607.77 165.65 1610.87 166.01 1613.99C168.04 1631.68 170.11 1649.37 172.02 1667.08C172.39 1670.5 172.91 1674.06 170.87 1677.79C167.07 1677.43 162.67 1680.01 159.16 1675.41C161.02 1675.01 162.61 1674.67 164.47 1674.27Z" fill="white"/>
<path d="M184.01 1702.75C184.16 1704.66 184.31 1706.43 184.47 1708.48C163.15 1714.1 142.2 1714.46 121.04 1707.64C121.3 1706.37 121.45 1705.26 121.76 1704.19C122.02 1703.26 122.44 1702.38 122.94 1701.11C133.04 1703.56 143.06 1706.24 153.31 1705.83C163.35 1705.44 173.35 1703.87 184.02 1702.74L184.01 1702.75Z" fill="white"/>
<path d="M120.42 1609.09C124.51 1608.96 128.09 1612.3 128.28 1616.41C128.46 1620.32 125.26 1623.75 121.29 1623.91C117 1624.09 113.74 1620.99 113.63 1616.64C113.52 1612.42 116.4 1609.22 120.42 1609.09Z" fill="white"/>
<path d="M204.02 1616.63C204.07 1620.32 201.25 1623.48 197.75 1623.65C194.22 1623.82 190.89 1620.55 190.71 1616.74C190.53 1612.95 193.69 1609.42 197.25 1609.42C200.78 1609.42 203.97 1612.81 204.02 1616.62V1616.63Z" fill="white"/>
<path d="M156.77 1304.26H162.67C164.94 1310.64 169.87 1372.07 168.49 1377.53C164.9 1377.74 161.04 1379.79 157.41 1375.69C158.99 1375.14 160.15 1374.74 161.41 1374.3C161.56 1373.59 161.85 1372.95 161.81 1372.33C161.27 1363.69 160.77 1355.05 160.08 1346.43C159.05 1333.65 157.87 1320.89 156.78 1308.12C156.68 1306.99 156.77 1305.85 156.77 1304.26Z" fill="white"/>
<path d="M184.15 1402.98C184.27 1404.9 184.39 1406.81 184.52 1408.86C162.78 1414.15 141.59 1414.43 120.2 1407.37C120.8 1405.23 121.36 1403.23 122.02 1400.88C132.54 1403.51 142.74 1406.21 153.19 1405.86C163.39 1405.52 173.56 1404.01 184.14 1402.98H184.15Z" fill="white"/>
<path d="M126.83 1316.92C126.78 1321.1 123.77 1324.05 119.6 1324C115.4 1323.95 112.06 1320.53 112.15 1316.39C112.24 1312.47 115.64 1309.16 119.51 1309.2C123.67 1309.25 126.88 1312.63 126.82 1316.92H126.83Z" fill="white"/>
<path d="M197.21 1309.21C200.89 1309.16 204.03 1312.33 204.15 1316.23C204.28 1320.19 201.35 1323.44 197.57 1323.51C193.95 1323.58 190.7 1320.31 190.59 1316.48C190.48 1312.59 193.5 1309.26 197.2 1309.21H197.21Z" fill="white"/>
<path d="M167.35 1974.42C168.32 1967.74 166.82 1961.7 166.07 1955.64C164.05 1939.33 161.85 1923.04 159.73 1906.74C159.65 1906.11 159.72 1905.45 159.72 1904.48H166C167.01 1911.45 168.06 1918.31 169 1925.18C170.94 1939.5 172.81 1953.82 174.72 1968.14C175.14 1971.31 175.08 1974.4 173.48 1977.6C169.24 1977.65 164.77 1979.7 160.78 1975.24C163.15 1974.94 165.07 1974.7 167.34 1974.41L167.35 1974.42Z" fill="white"/>
<path d="M121.7 2007.83C122.34 2005.48 122.85 2003.59 123.48 2001.27C133.53 2003.57 143.36 2006.3 153.43 2005.81C163.43 2005.33 173.38 2003.72 183.73 2002.57C183.93 2004.4 184.12 2006.17 184.35 2008.23C163.46 2013.97 142.86 2014.51 121.7 2007.83Z" fill="white"/>
<path d="M129.43 1916.39C129.53 1920.58 126.49 1923.81 122.42 1923.84C118.31 1923.88 114.88 1920.37 114.9 1916.16C114.92 1912.27 117.9 1909.14 121.72 1909C125.96 1908.85 129.32 1912.08 129.42 1916.39H129.43Z" fill="white"/>
<path d="M203.45 1916.9C203.47 1920.94 200.91 1923.81 197.3 1923.78C193.77 1923.75 190.63 1920.24 190.73 1916.45C190.83 1912.9 193.52 1910 196.85 1909.88C200.65 1909.74 203.44 1912.7 203.46 1916.9H203.45Z" fill="white"/>
<path d="M160.9 2204.34H167.05C167.73 2207.88 168.5 2211.4 169.06 2214.94C171.73 2231.67 174.41 2248.4 176.91 2265.15C177.51 2269.18 178.13 2273.37 175.89 2277.69C171.48 2277.46 166.83 2279.73 162.52 2275.05H169.61C171.2 2272.4 170.64 2269.52 170.27 2266.84C168.69 2255.49 166.88 2244.17 165.17 2232.84C163.76 2223.5 162.37 2214.16 160.9 2204.35V2204.34Z" fill="white"/>
<path d="M183.16 2302.41C183.47 2304.28 183.77 2306.02 184.1 2308C163.56 2313.81 143.4 2314.61 122.75 2308.07C123.24 2305.98 123.72 2303.95 124.14 2302.14C134.14 2303.43 143.78 2305.61 153.43 2305.66C163.12 2305.71 172.82 2303.63 183.16 2302.41Z" fill="white"/>
<path d="M130.68 2216.5C130.68 2220.8 127.7 2223.88 123.68 2223.76C119.59 2223.64 116.48 2220.15 116.6 2215.81C116.71 2211.7 119.47 2208.88 123.39 2208.87C127.67 2208.86 130.69 2212.02 130.68 2216.5Z" fill="white"/>
<path d="M203.14 2217.4C203.04 2221.1 200.35 2223.94 196.98 2223.89C193.59 2223.84 190.67 2220.58 190.67 2216.84C190.67 2212.91 193.54 2209.9 197.1 2210.11C200.49 2210.31 203.24 2213.63 203.14 2217.4Z" fill="white"/>
</svg>
